<svg width="26" height="25" viewBox="0 0 26 25" fill="none" xmlns="http://www.w3.org/2000/svg">
<path d="M11.7799 1.88777C12.1654 0.704078 13.8401 0.704078 14.2243 1.88777L16.1766 7.89489C16.2606 8.15256 16.4239 8.37708 16.6432 8.53635C16.8625 8.69562 17.1265 8.78149 17.3976 8.78169H23.7144C24.9598 8.78169 25.4765 10.3754 24.4701 11.1079L19.3601 14.8197C19.1406 14.9792 18.9772 15.2042 18.8934 15.4623C18.8096 15.7204 18.8097 15.9984 18.8936 16.2565L20.8445 22.2637C21.2301 23.4486 19.8742 24.4331 18.8679 23.7005L13.7578 19.9888C13.5382 19.8292 13.2736 19.7432 13.0021 19.7432C12.7306 19.7432 12.466 19.8292 12.2464 19.9888L7.13636 23.7005C6.13003 24.4331 4.77412 23.4473 5.15969 22.2637L7.11065 16.2565C7.19455 15.9984 7.1946 15.7204 7.11079 15.4623C7.02698 15.2042 6.86362 14.9792 6.64412 14.8197L1.53408 11.1079C0.526464 10.3754 1.04569 8.78169 2.28979 8.78169H8.60536C8.87661 8.78176 9.14092 8.69602 9.36046 8.53673C9.58 8.37744 9.74352 8.15277 9.82761 7.89489L11.7799 1.88777Z" stroke="#6C757D" stroke-width="2" stroke-linecap="round" stroke-linejoin="round"/>
</svg>
